<svg width="50" height="50" viewBox="0 0 50 50" fill="none" xmlns="http://www.w3.org/2000/svg">
<path d="M38.6643 40.7267C36.5947 35.1912 31.2576 31.25 25.0001 31.25C18.7425 31.25 13.4055 35.1912 11.3358 40.7267M38.6643 40.7267C43.0566 36.9071 45.8334 31.2778 45.8334 25C45.8334 13.494 36.506 4.16663 25.0001 4.16663C13.4941 4.16663 4.16675 13.494 4.16675 25C4.16675 31.2778 6.94351 36.9071 11.3358 40.7267M38.6643 40.7267C35.0065 43.9075 30.2282 45.8333 25.0001 45.8333C19.772 45.8333 14.9937 43.9075 11.3358 40.7267M31.2501 18.75C31.2501 22.2017 28.4519 25 25.0001 25C21.5483 25 18.7501 22.2017 18.7501 18.75C18.7501 15.2982 21.5483 12.5 25.0001 12.5C28.4519 12.5 31.2501 15.2982 31.2501 18.75Z" stroke="#141718" stroke-width="1.5" stroke-linejoin="round"/>
</svg>
